<?xml version="1.0" standalone="no"?>
<!DOCTYPE svg PUBLIC "-//W3C//DTD SVG 20010904//EN"
 "http://www.w3.org/TR/2001/REC-SVG-20010904/DTD/svg10.dtd">
<svg version="1.0" xmlns="http://www.w3.org/2000/svg"
 width="72.000000pt" height="72.000000pt" viewBox="0 0 72.000000 72.000000"
 preserveAspectRatio="xMidYMid meet">
<metadata>
Created by potrace 1.11, written by Peter Selinger 2001-2013
</metadata>
<g transform="translate(0.000000,72.000000) scale(0.100000,-0.100000)"
fill="#000000" stroke="none">
<path d="M291 699 c-105 -20 -194 -88 -243 -187 -30 -60 -33 -75 -33 -152 0
-72 5 -94 28 -145 98 -211 374 -265 548 -108 54 49 87 108 103 185 50 240
-159 451 -403 407z m78 -181 c0 -7 -4 -22 -8 -33 -7 -17 -9 -15 -13 13 -3 22
-1 32 9 32 7 0 13 -6 12 -12z m-35 -30 c4 -21 2 -34 -6 -40 -20 -12 -23 -10
-41 26 -15 32 -15 35 1 39 34 9 40 6 46 -25z m72 10 c-3 -13 -6 -29 -6 -35 0
-7 -7 -13 -15 -13 -18 0 -18 -1 -4 39 12 35 35 43 25 9z m31 -25 c-17 -18 -22
-8 -11 22 5 12 10 13 17 6 8 -8 6 -16 -6 -28z m-168 -4 c11 -19 11 -21 -4 -15
-9 3 -19 6 -21 6 -2 0 -4 7 -4 15 0 21 13 19 29 -6z m214 4 c9 -9 -33 -53 -50
-53 -19 0 -16 10 9 37 23 24 30 27 41 16z m-203 -64 c0 -14 -16 -8 -69 27 -1
2 0 8 4 14 7 11 65 -24 65 -41z m230 21 c0 -5 -4 -10 -9 -10 -5 0 -18 -3 -28
-7 -16 -6 -16 -5 -4 10 15 19 41 23 41 7z m-271 -37 c2 -2 -8 -3 -22 -3 -20 0
-25 4 -21 15 5 13 9 13 23 3 9 -7 18 -14 20 -15z m281 -3 c0 -13 -46 -24 -67
-15 -17 7 -16 8 2 15 28 12 65 12 65 0z m-260 -30 c0 -5 -16 -10 -35 -10 -19
0 -35 5 -35 10 0 6 16 10 35 10 19 0 35 -4 35 -10z m110 0 c0 -5 -4 -10 -10
-10 -5 0 -10 5 -10 10 0 6 5 10 10 10 6 0 10 -4 10 -10z m154 -14 c-3 -8 -13
-12 -25 -9 -23 6 -15 23 11 23 12 0 17 -5 14 -14z m-45 -17 c17 -6 31 -18 31
-26 0 -10 -5 -13 -17 -8 -10 4 -26 10 -35 12 -10 3 -18 12 -18 19 0 17 -1 17
39 3z m-253 -14 c-19 -14 -36 -12 -36 6 0 5 12 9 28 9 26 -1 26 -1 8 -15z m54
-4 c0 -17 -58 -52 -65 -41 -4 6 -5 13 -4 14 45 34 69 43 69 27z m168 -50 c13
-18 18 -32 12 -36 -12 -7 -49 33 -50 53 0 20 15 14 38 -17z m37 16 c11 -8 14
-16 8 -20 -6 -4 -18 2 -28 13 -21 23 -8 27 20 7z m-165 -7 c0 -20 -24 -60 -36
-60 -11 0 -10 8 3 35 16 33 33 46 33 25z m-52 -19 c-6 -11 -18 -17 -26 -13
-12 4 -12 8 4 19 26 19 36 16 22 -6z m112 -21 c0 -22 -4 -40 -10 -40 -5 0 -10
8 -10 18 0 9 -3 27 -6 40 -5 16 -2 22 10 22 12 0 16 -10 16 -40z m-40 -10 c0
-21 -4 -28 -14 -24 -12 5 -13 11 -4 30 15 31 18 30 18 -6z m84 -12 c-11 -17
-24 -6 -24 19 0 26 1 26 14 8 8 -11 12 -23 10 -27z"/>
</g>
</svg>
